<mxfile host="Electron" modified="2024-05-10T12:18:54.573Z" agent="Mozilla/5.0 (Macintosh; Intel Mac OS X 10_15_7) AppleWebKit/537.36 (KHTML, like Gecko) draw.io/24.2.5 Chrome/120.0.6099.109 Electron/28.1.0 Safari/537.36" etag="jIvDhbhZozvgXfV_meFR" version="24.2.5" type="device">
  <diagram name="Page-1" id="jymH0QMfk0rWbCQiFvN3">
    <mxGraphModel dx="250" dy="1618" grid="1" gridSize="10" guides="1" tooltips="1" connect="1" arrows="1" fold="1" page="1" pageScale="1" pageWidth="850" pageHeight="1100" math="0" shadow="0">
      <root>
        <mxCell id="0" />
        <mxCell id="1" parent="0" />
        <mxCell id="C7U5wfTQVhOIld-lDVxG-1" value="Read Text File One Character at a Time" style="rounded=1;whiteSpace=wrap;sketch=0;container=1;recursiveResize=0;verticalAlign=top;arcSize=6;fontStyle=1;autosize=0;points=[];absoluteArcSize=1;shadow=1;strokeColor=#001DBC;fillColor=#0050ef;fontColor=#ffffff;fontFamily=Helvetica;fontSize=11;labelBackgroundColor=none;" vertex="1" parent="1">
          <mxGeometry x="960" y="-1040" width="100" height="180" as="geometry">
            <mxRectangle x="-98" y="-1230" width="99" height="26" as="alternateBounds" />
          </mxGeometry>
        </mxCell>
        <mxCell id="C7U5wfTQVhOIld-lDVxG-4" value="✗" style="rounded=1;whiteSpace=wrap;sketch=0;points=[[0,0.5,0,0,0],[1,0.5,0,0,0]];fillColor=#1ba1e2;fontColor=#ffffff;strokeColor=#006EAF;arcSize=50;fontFamily=Helvetica;fontSize=11;textOpacity=30;opacity=30;labelBackgroundColor=none;" vertex="1" parent="C7U5wfTQVhOIld-lDVxG-1">
          <mxGeometry x="80" y="135" width="35.25" height="25" as="geometry" />
        </mxCell>
        <mxCell id="C7U5wfTQVhOIld-lDVxG-30" value="getc" style="rounded=1;whiteSpace=wrap;sketch=0;points=[[0,0.5,0,0,0],[1,0.5,0,0,0]];arcSize=50;fontFamily=Helvetica;fontSize=11;fontColor=default;labelBackgroundColor=none;" vertex="1" parent="C7U5wfTQVhOIld-lDVxG-1">
          <mxGeometry x="76" y="100" width="39.25" height="25" as="geometry" />
        </mxCell>
        <mxCell id="C7U5wfTQVhOIld-lDVxG-2" value="" style="rounded=1;whiteSpace=wrap;sketch=0;points=[[0,0.5,0,0,0],[1,0.5,0,0,0]];arcSize=50;fontFamily=Helvetica;fontSize=11;fontColor=default;labelBackgroundColor=none;" vertex="1" parent="C7U5wfTQVhOIld-lDVxG-1">
          <mxGeometry x="-10" y="50" width="39.25" height="25" as="geometry" />
        </mxCell>
        <mxCell id="C7U5wfTQVhOIld-lDVxG-5" value="SWIB" style="rounded=1;whiteSpace=wrap;sketch=0;container=1;recursiveResize=0;verticalAlign=top;arcSize=6;fontStyle=1;autosize=0;points=[];absoluteArcSize=1;shadow=1;strokeColor=#001DBC;fillColor=#0050ef;fontColor=#ffffff;fontFamily=Helvetica;fontSize=11;labelBackgroundColor=none;" vertex="1" parent="1">
          <mxGeometry x="1140" y="-1040" width="80" height="180" as="geometry">
            <mxRectangle x="-98" y="-1230" width="99" height="26" as="alternateBounds" />
          </mxGeometry>
        </mxCell>
        <mxCell id="C7U5wfTQVhOIld-lDVxG-7" value="" style="rounded=1;whiteSpace=wrap;sketch=0;points=[[0,0.5,0,0,0],[1,0.5,0,0,0]];fillColor=#1ba1e2;fontColor=#ffffff;strokeColor=#006EAF;arcSize=50;fontFamily=Helvetica;fontSize=11;labelBackgroundColor=none;" vertex="1" parent="C7U5wfTQVhOIld-lDVxG-5">
          <mxGeometry x="60" y="27.5" width="35.25" height="25" as="geometry" />
        </mxCell>
        <mxCell id="C7U5wfTQVhOIld-lDVxG-29" value="getc" style="rounded=1;whiteSpace=wrap;sketch=0;points=[[0,0.5,0,0,0],[1,0.5,0,0,0]];fillColor=#1ba1e2;fontColor=#ffffff;strokeColor=#006EAF;arcSize=50;fontFamily=Helvetica;fontSize=11;labelBackgroundColor=none;" vertex="1" parent="C7U5wfTQVhOIld-lDVxG-5">
          <mxGeometry x="-10" y="100" width="35.25" height="25" as="geometry" />
        </mxCell>
        <mxCell id="C7U5wfTQVhOIld-lDVxG-34" value="begin" style="rounded=1;whiteSpace=wrap;sketch=0;points=[[0,0.5,0,0,0],[1,0.5,0,0,0]];arcSize=50;fontFamily=Helvetica;fontSize=11;fontColor=default;labelBackgroundColor=none;" vertex="1" parent="C7U5wfTQVhOIld-lDVxG-5">
          <mxGeometry x="-10" y="27.5" width="39.25" height="25" as="geometry" />
        </mxCell>
        <mxCell id="C7U5wfTQVhOIld-lDVxG-9" value="" style="rhombus;whiteSpace=wrap;rounded=1;fontStyle=1;glass=0;sketch=0;fontSize=12;points=[[0,0.5,0,0,0],[0.5,0,0,0,0],[0.5,1,0,0,0],[1,0.5,0,0,0]];shadow=1;fillColor=#0050ef;fontColor=#ffffff;strokeColor=#001DBC;fontFamily=Helvetica;labelBackgroundColor=none;" vertex="1" parent="1">
          <mxGeometry x="1610" y="-1020" width="40" height="40" as="geometry" />
        </mxCell>
        <mxCell id="C7U5wfTQVhOIld-lDVxG-10" value="✗" style="rhombus;whiteSpace=wrap;rounded=1;fillColor=#0050ef;fontColor=#ffffff;strokeColor=#001DBC;fontStyle=1;glass=0;sketch=0;fontSize=12;points=[[0,0.5,0,0,0],[0.5,0,0,0,0],[0.5,1,0,0,0],[1,0.5,0,0,0]];shadow=1;opacity=30;textOpacity=30;fontFamily=Helvetica;labelBackgroundColor=none;" vertex="1" parent="1">
          <mxGeometry x="1610" y="-912.5" width="40" height="40" as="geometry" />
        </mxCell>
        <mxCell id="C7U5wfTQVhOIld-lDVxG-12" value="" style="rhombus;whiteSpace=wrap;rounded=1;fontStyle=1;glass=0;sketch=0;fontSize=12;points=[[0,0.5,0,0,0],[0.5,0,0,0,0],[0.5,1,0,0,0],[1,0.5,0,0,0]];shadow=1;fontFamily=Helvetica;fontColor=default;labelBackgroundColor=none;" vertex="1" parent="1">
          <mxGeometry x="860" y="-997.5" width="40" height="40" as="geometry" />
        </mxCell>
        <mxCell id="C7U5wfTQVhOIld-lDVxG-14" value="" style="edgeStyle=orthogonalEdgeStyle;curved=0;rounded=1;orthogonalLoop=1;jettySize=auto;exitX=1;exitY=0.5;exitDx=0;exitDy=0;exitPerimeter=0;entryX=0;entryY=0.5;entryDx=0;entryDy=0;entryPerimeter=0;opacity=30;strokeColor=default;strokeWidth=1;align=center;verticalAlign=middle;fontFamily=Helvetica;fontSize=11;fontColor=default;labelBackgroundColor=default;endArrow=classic;" edge="1" parent="1" source="C7U5wfTQVhOIld-lDVxG-8" target="C7U5wfTQVhOIld-lDVxG-10">
          <mxGeometry relative="1" as="geometry">
            <Array as="points">
              <mxPoint x="1075" y="-892" />
              <mxPoint x="1100" y="-892" />
            </Array>
          </mxGeometry>
        </mxCell>
        <mxCell id="C7U5wfTQVhOIld-lDVxG-16" value="Indenter" style="rounded=1;whiteSpace=wrap;sketch=0;container=1;recursiveResize=0;verticalAlign=top;arcSize=6;fontStyle=1;autosize=0;points=[];absoluteArcSize=1;shadow=1;strokeColor=#001DBC;fillColor=#0050ef;fontColor=#ffffff;fontFamily=Helvetica;fontSize=11;labelBackgroundColor=none;" vertex="1" parent="1">
          <mxGeometry x="1460" y="-1040" width="80" height="110" as="geometry">
            <mxRectangle x="-98" y="-1230" width="99" height="26" as="alternateBounds" />
          </mxGeometry>
        </mxCell>
        <mxCell id="C7U5wfTQVhOIld-lDVxG-17" value="" style="rounded=1;whiteSpace=wrap;sketch=0;points=[[0,0.5,0,0,0],[1,0.5,0,0,0]];arcSize=50;fontFamily=Helvetica;fontSize=11;fontColor=default;labelBackgroundColor=none;" vertex="1" parent="C7U5wfTQVhOIld-lDVxG-16">
          <mxGeometry x="-10" y="27.5" width="39.25" height="25" as="geometry" />
        </mxCell>
        <mxCell id="C7U5wfTQVhOIld-lDVxG-18" value="" style="rounded=1;whiteSpace=wrap;sketch=0;points=[[0,0.5,0,0,0],[1,0.5,0,0,0]];fillColor=#1ba1e2;fontColor=#ffffff;strokeColor=#006EAF;arcSize=50;fontFamily=Helvetica;fontSize=11;labelBackgroundColor=none;" vertex="1" parent="C7U5wfTQVhOIld-lDVxG-16">
          <mxGeometry x="60" y="27.5" width="35.25" height="25" as="geometry" />
        </mxCell>
        <mxCell id="C7U5wfTQVhOIld-lDVxG-19" value="✗" style="rounded=1;whiteSpace=wrap;sketch=0;points=[[0,0.5,0,0,0],[1,0.5,0,0,0]];fillColor=#1ba1e2;fontColor=#ffffff;strokeColor=#006EAF;arcSize=50;fontFamily=Helvetica;fontSize=11;textOpacity=30;opacity=30;labelBackgroundColor=none;" vertex="1" parent="C7U5wfTQVhOIld-lDVxG-16">
          <mxGeometry x="60" y="67.5" width="35.25" height="25" as="geometry" />
        </mxCell>
        <mxCell id="C7U5wfTQVhOIld-lDVxG-20" style="edgeStyle=orthogonalEdgeStyle;curved=0;rounded=1;orthogonalLoop=1;jettySize=auto;html=1;exitX=1;exitY=0.5;exitDx=0;exitDy=0;exitPerimeter=0;strokeColor=default;strokeWidth=1;align=center;verticalAlign=middle;fontFamily=Helvetica;fontSize=11;fontColor=default;labelBackgroundColor=default;endArrow=classic;opacity=30;" edge="1" parent="1" source="C7U5wfTQVhOIld-lDVxG-19">
          <mxGeometry relative="1" as="geometry">
            <mxPoint x="1610" y="-892" as="targetPoint" />
            <Array as="points">
              <mxPoint x="1570" y="-960" />
              <mxPoint x="1570" y="-892" />
            </Array>
          </mxGeometry>
        </mxCell>
        <mxCell id="C7U5wfTQVhOIld-lDVxG-21" value="SWIB2" style="rounded=1;whiteSpace=wrap;sketch=0;container=1;recursiveResize=0;verticalAlign=top;arcSize=6;fontStyle=1;autosize=0;points=[];absoluteArcSize=1;shadow=1;strokeColor=#001DBC;fillColor=#0050ef;fontColor=#ffffff;fontFamily=Helvetica;fontSize=11;labelBackgroundColor=none;" vertex="1" parent="1">
          <mxGeometry x="1300" y="-1040" width="80" height="110" as="geometry">
            <mxRectangle x="-98" y="-1230" width="99" height="26" as="alternateBounds" />
          </mxGeometry>
        </mxCell>
        <mxCell id="C7U5wfTQVhOIld-lDVxG-22" value="" style="rounded=1;whiteSpace=wrap;sketch=0;points=[[0,0.5,0,0,0],[1,0.5,0,0,0]];arcSize=50;fontFamily=Helvetica;fontSize=11;fontColor=default;labelBackgroundColor=none;" vertex="1" parent="C7U5wfTQVhOIld-lDVxG-21">
          <mxGeometry x="-10" y="27.5" width="39.25" height="25" as="geometry" />
        </mxCell>
        <mxCell id="C7U5wfTQVhOIld-lDVxG-23" value="" style="rounded=1;whiteSpace=wrap;sketch=0;points=[[0,0.5,0,0,0],[1,0.5,0,0,0]];fillColor=#1ba1e2;fontColor=#ffffff;strokeColor=#006EAF;arcSize=50;fontFamily=Helvetica;fontSize=11;labelBackgroundColor=none;" vertex="1" parent="C7U5wfTQVhOIld-lDVxG-21">
          <mxGeometry x="60" y="27.5" width="35.25" height="25" as="geometry" />
        </mxCell>
        <mxCell id="C7U5wfTQVhOIld-lDVxG-24" value="✗" style="rounded=1;whiteSpace=wrap;sketch=0;points=[[0,0.5,0,0,0],[1,0.5,0,0,0]];fillColor=#1ba1e2;fontColor=#ffffff;strokeColor=#006EAF;arcSize=50;fontFamily=Helvetica;fontSize=11;textOpacity=30;opacity=30;labelBackgroundColor=none;" vertex="1" parent="C7U5wfTQVhOIld-lDVxG-21">
          <mxGeometry x="60" y="67.5" width="35.25" height="25" as="geometry" />
        </mxCell>
        <mxCell id="C7U5wfTQVhOIld-lDVxG-25" style="edgeStyle=orthogonalEdgeStyle;curved=0;rounded=1;orthogonalLoop=1;jettySize=auto;html=1;exitX=1;exitY=0.5;exitDx=0;exitDy=0;exitPerimeter=0;strokeColor=default;strokeWidth=2;align=center;verticalAlign=middle;fontFamily=Helvetica;fontSize=11;fontColor=default;labelBackgroundColor=default;endArrow=classic;entryX=0;entryY=0.5;entryDx=0;entryDy=0;entryPerimeter=0;" edge="1" parent="1" source="C7U5wfTQVhOIld-lDVxG-18" target="C7U5wfTQVhOIld-lDVxG-9">
          <mxGeometry relative="1" as="geometry">
            <mxPoint x="1600" y="-980" as="targetPoint" />
          </mxGeometry>
        </mxCell>
        <mxCell id="C7U5wfTQVhOIld-lDVxG-26" style="edgeStyle=orthogonalEdgeStyle;curved=0;rounded=1;orthogonalLoop=1;jettySize=auto;html=1;exitX=1;exitY=0.5;exitDx=0;exitDy=0;exitPerimeter=0;entryX=0;entryY=0.5;entryDx=0;entryDy=0;entryPerimeter=0;strokeColor=default;strokeWidth=2;align=center;verticalAlign=middle;fontFamily=Helvetica;fontSize=11;fontColor=default;labelBackgroundColor=default;endArrow=classic;" edge="1" parent="1" source="C7U5wfTQVhOIld-lDVxG-23" target="C7U5wfTQVhOIld-lDVxG-17">
          <mxGeometry relative="1" as="geometry" />
        </mxCell>
        <mxCell id="C7U5wfTQVhOIld-lDVxG-27" style="edgeStyle=orthogonalEdgeStyle;curved=0;rounded=1;orthogonalLoop=1;jettySize=auto;html=1;exitX=1;exitY=0.5;exitDx=0;exitDy=0;exitPerimeter=0;entryX=0;entryY=0.5;entryDx=0;entryDy=0;entryPerimeter=0;strokeColor=default;strokeWidth=1;align=center;verticalAlign=middle;fontFamily=Helvetica;fontSize=11;fontColor=default;labelBackgroundColor=default;endArrow=classic;opacity=30;" edge="1" parent="1" source="C7U5wfTQVhOIld-lDVxG-24" target="C7U5wfTQVhOIld-lDVxG-10">
          <mxGeometry relative="1" as="geometry">
            <Array as="points">
              <mxPoint x="1420" y="-960" />
              <mxPoint x="1420" y="-892" />
            </Array>
          </mxGeometry>
        </mxCell>
        <mxCell id="C7U5wfTQVhOIld-lDVxG-28" style="edgeStyle=orthogonalEdgeStyle;curved=0;rounded=1;orthogonalLoop=1;jettySize=auto;html=1;exitX=1;exitY=0.5;exitDx=0;exitDy=0;exitPerimeter=0;entryX=0;entryY=0.5;entryDx=0;entryDy=0;entryPerimeter=0;strokeColor=default;strokeWidth=2;align=center;verticalAlign=middle;fontFamily=Helvetica;fontSize=11;fontColor=default;labelBackgroundColor=default;endArrow=classic;" edge="1" parent="1" source="C7U5wfTQVhOIld-lDVxG-7" target="C7U5wfTQVhOIld-lDVxG-22">
          <mxGeometry relative="1" as="geometry" />
        </mxCell>
        <mxCell id="C7U5wfTQVhOIld-lDVxG-3" value="" style="rounded=1;whiteSpace=wrap;sketch=0;points=[[0,0.5,0,0,0],[1,0.5,0,0,0]];fillColor=#1ba1e2;fontColor=#ffffff;strokeColor=#006EAF;arcSize=50;fontFamily=Helvetica;fontSize=11;labelBackgroundColor=none;" vertex="1" parent="1">
          <mxGeometry x="1040" y="-972.5" width="35.25" height="25" as="geometry" />
        </mxCell>
        <mxCell id="C7U5wfTQVhOIld-lDVxG-6" value="" style="rounded=1;whiteSpace=wrap;sketch=0;points=[[0,0.5,0,0,0],[1,0.5,0,0,0]];arcSize=50;fontFamily=Helvetica;fontSize=11;fontColor=default;labelBackgroundColor=none;" vertex="1" parent="1">
          <mxGeometry x="1130" y="-972.5" width="39.25" height="25" as="geometry" />
        </mxCell>
        <mxCell id="C7U5wfTQVhOIld-lDVxG-15" style="edgeStyle=orthogonalEdgeStyle;rounded=0;orthogonalLoop=1;jettySize=auto;html=1;exitX=1;exitY=0.5;exitDx=0;exitDy=0;exitPerimeter=0;entryX=0;entryY=0.5;entryDx=0;entryDy=0;entryPerimeter=0;strokeWidth=2;" edge="1" parent="1" source="C7U5wfTQVhOIld-lDVxG-3" target="C7U5wfTQVhOIld-lDVxG-6">
          <mxGeometry relative="1" as="geometry" />
        </mxCell>
        <mxCell id="C7U5wfTQVhOIld-lDVxG-31" style="edgeStyle=orthogonalEdgeStyle;rounded=0;orthogonalLoop=1;jettySize=auto;html=1;exitX=0;exitY=0.5;exitDx=0;exitDy=0;exitPerimeter=0;entryX=1;entryY=0.5;entryDx=0;entryDy=0;entryPerimeter=0;strokeWidth=2;" edge="1" parent="1" source="C7U5wfTQVhOIld-lDVxG-29" target="C7U5wfTQVhOIld-lDVxG-30">
          <mxGeometry relative="1" as="geometry" />
        </mxCell>
        <mxCell id="C7U5wfTQVhOIld-lDVxG-32" value="" style="edgeStyle=orthogonalEdgeStyle;curved=0;rounded=1;orthogonalLoop=1;jettySize=auto;exitX=1;exitY=0.5;exitDx=0;exitDy=0;exitPerimeter=0;entryX=0;entryY=0.5;entryDx=0;entryDy=0;entryPerimeter=0;opacity=30;strokeColor=default;strokeWidth=1;align=center;verticalAlign=middle;fontFamily=Helvetica;fontSize=11;fontColor=default;labelBackgroundColor=default;endArrow=classic;" edge="1" parent="1" source="C7U5wfTQVhOIld-lDVxG-4" target="C7U5wfTQVhOIld-lDVxG-10">
          <mxGeometry relative="1" as="geometry">
            <Array as="points" />
            <mxPoint x="1075" y="-892" as="sourcePoint" />
            <mxPoint x="1610" y="-892" as="targetPoint" />
          </mxGeometry>
        </mxCell>
        <mxCell id="C7U5wfTQVhOIld-lDVxG-33" style="edgeStyle=orthogonalEdgeStyle;rounded=0;orthogonalLoop=1;jettySize=auto;html=1;exitX=1;exitY=0.5;exitDx=0;exitDy=0;exitPerimeter=0;" edge="1" parent="1" source="C7U5wfTQVhOIld-lDVxG-8" target="C7U5wfTQVhOIld-lDVxG-10">
          <mxGeometry relative="1" as="geometry" />
        </mxCell>
        <mxCell id="C7U5wfTQVhOIld-lDVxG-8" value="✗" style="rounded=1;whiteSpace=wrap;sketch=0;points=[[0,0.5,0,0,0],[1,0.5,0,0,0]];fillColor=#1ba1e2;fontColor=#ffffff;strokeColor=#006EAF;arcSize=50;fontFamily=Helvetica;fontSize=11;textOpacity=30;opacity=30;labelBackgroundColor=none;" vertex="1" parent="1">
          <mxGeometry x="1200" y="-905" width="35.25" height="25" as="geometry" />
        </mxCell>
        <mxCell id="C7U5wfTQVhOIld-lDVxG-35" style="edgeStyle=orthogonalEdgeStyle;rounded=1;orthogonalLoop=1;jettySize=auto;html=1;exitX=1;exitY=0.5;exitDx=0;exitDy=0;exitPerimeter=0;entryX=0;entryY=0.5;entryDx=0;entryDy=0;entryPerimeter=0;curved=0;" edge="1" parent="1" source="C7U5wfTQVhOIld-lDVxG-12" target="C7U5wfTQVhOIld-lDVxG-34">
          <mxGeometry relative="1" as="geometry">
            <Array as="points">
              <mxPoint x="920" y="-977" />
              <mxPoint x="920" y="-1080" />
              <mxPoint x="1110" y="-1080" />
              <mxPoint x="1110" y="-1000" />
            </Array>
          </mxGeometry>
        </mxCell>
        <mxCell id="C7U5wfTQVhOIld-lDVxG-11" style="edgeStyle=orthogonalEdgeStyle;rounded=1;orthogonalLoop=1;jettySize=auto;html=1;exitX=1;exitY=0.5;exitDx=0;exitDy=0;exitPerimeter=0;strokeWidth=2;curved=0;" edge="1" parent="1" source="C7U5wfTQVhOIld-lDVxG-12" target="C7U5wfTQVhOIld-lDVxG-2">
          <mxGeometry relative="1" as="geometry">
            <mxPoint x="900" y="-977.5" as="sourcePoint" />
          </mxGeometry>
        </mxCell>
      </root>
    </mxGraphModel>
  </diagram>
</mxfile>
